<?xml version="1.0" encoding="utf-8"?><svg width="auto" height="3070" style="overflow:visible " version="1.1" xmlns="http://www.w3.org/2000/svg"><rect x="20" y="20" width="200" height="40" style="fill:white;stroke:black;stroke-width:1" /><text x="30" y="30" font-size="10" style="fill:blue">circuito</text><rect x="240" y="20" width="200" height="40" style="fill:white;stroke:black;stroke-width:1" /><text x="250" y="30" font-size="10" style="fill:blue">nombreC</text><path d="M220 40 C240 40 220 40 240 40" style="fill:transparent;stroke:black" /><text x="250" y="40" font-size="8" style="fill:black">nombre: Automotodrom Brno</text><rect x="240" y="70" width="200" height="40" style="fill:white;stroke:black;stroke-width:1" /><text x="250" y="80" font-size="10" style="fill:blue">longitud</text><path d="M220 40 C240 40 220 90 240 90" style="fill:transparent;stroke:black" /><text x="250" y="90" font-size="8" style="fill:black">unidad: 5.403 metros</text><rect x="240" y="120" width="200" height="40" style="fill:white;stroke:black;stroke-width:1" /><text x="250" y="130" font-size="10" style="fill:blue">anchura</text><path d="M220 40 C240 40 220 140 240 140" style="fill:transparent;stroke:black" /><text x="250" y="140" font-size="8" style="fill:black">unidad: 15 metros</text><rect x="240" y="170" width="200" height="40" style="fill:white;stroke:black;stroke-width:1" /><text x="250" y="180" font-size="10" style="fill:blue">fecha</text><path d="M220 40 C240 40 220 190 240 190" style="fill:transparent;stroke:black" /><text x="250" y="190" font-size="8" style="fill:black">dia: del 18 al 20 de julio</text><rect x="240" y="220" width="200" height="40" style="fill:white;stroke:black;stroke-width:1" /><text x="250" y="230" font-size="10" style="fill:blue">hora</text><path d="M220 40 C240 40 220 240 240 240" style="fill:transparent;stroke:black" /><text x="250" y="240" font-size="8" style="fill:black">hora: 14:00</text><rect x="240" y="270" width="200" height="40" style="fill:white;stroke:black;stroke-width:1" /><text x="250" y="280" font-size="10" style="fill:blue">numeroVueltas</text><path d="M220 40 C240 40 220 290 240 290" style="fill:transparent;stroke:black" /><text x="250" y="290" font-size="8" style="fill:black">vueltas: 21</text><rect x="240" y="320" width="200" height="40" style="fill:white;stroke:black;stroke-width:1" /><text x="250" y="330" font-size="10" style="fill:blue">localidad</text><path d="M220 40 C240 40 220 340 240 340" style="fill:transparent;stroke:black" /><text x="250" y="340" font-size="8" style="fill:black">ciudad: Brno</text><rect x="240" y="370" width="200" height="40" style="fill:white;stroke:black;stroke-width:1" /><text x="250" y="380" font-size="10" style="fill:blue">pais</text><path d="M220 40 C240 40 220 390 240 390" style="fill:transparent;stroke:black" /><text x="250" y="390" font-size="8" style="fill:black">pais: Chequia</text><rect x="240" y="420" width="200" height="40" style="fill:white;stroke:black;stroke-width:1" /><text x="250" y="430" font-size="10" style="fill:blue">patrocinador</text><path d="M220 40 C240 40 220 440 240 440" style="fill:transparent;stroke:black" /><text x="250" y="440" font-size="8" style="fill:black">empresa: Tissot</text><rect x="240" y="470" width="200" height="40" style="fill:white;stroke:black;stroke-width:1" /><text x="250" y="480" font-size="10" style="fill:blue">referencias</text><path d="M220 40 C240 40 220 490 240 490" style="fill:transparent;stroke:black" /><rect x="460" y="470" width="200" height="40" style="fill:white;stroke:black;stroke-width:1" /><text x="470" y="480" font-size="10" style="fill:blue">referencia</text><path d="M440 490 C460 490 440 490 460 490" style="fill:transparent;stroke:black" /><text x="470" y="490" font-size="8" style="fill:black">url: https://www.automotodrombrno.cz/en</text><rect x="526" y="470" width="137" height="40" style="fill:green;stroke:black;stroke-width:1" /><text x="536" y="480" font-size="8" style="fill:white">Sitio oficial</text><rect x="460" y="520" width="200" height="40" style="fill:white;stroke:black;stroke-width:1" /><text x="470" y="530" font-size="10" style="fill:blue">referencia</text><path d="M440 490 C460 490 440 540 460 540" style="fill:transparent;stroke:black" /><text x="470" y="540" font-size="8" style="fill:black">url: https://www.motogpbrno.com/es</text><rect x="526" y="520" width="137" height="40" style="fill:green;stroke:black;stroke-width:1" /><text x="536" y="530" font-size="8" style="fill:white">Otra referencia</text><rect x="460" y="570" width="200" height="40" style="fill:white;stroke:black;stroke-width:1" /><text x="470" y="580" font-size="10" style="fill:blue">referencia</text><path d="M440 490 C460 490 440 590 460 590" style="fill:transparent;stroke:black" /><text x="470" y="590" font-size="8" style="fill:black">url: https://www.dazn.com/es-ES/news/motor/circuito-brno-donde-esta-como-es-caracteristicas-como-llegar-fotos-escenario-gp-republica-checa-mundial-motogp/83vt46p8sj0i1g3wdcmgk6gmb</text><rect x="526" y="570" width="137" height="40" style="fill:green;stroke:black;stroke-width:1" /><text x="536" y="580" font-size="8" style="fill:white">Otra referencia</text><rect x="240" y="670" width="200" height="40" style="fill:white;stroke:black;stroke-width:1" /><text x="250" y="680" font-size="10" style="fill:blue">imagenes</text><path d="M220 40 C240 40 220 690 240 690" style="fill:transparent;stroke:black" /><rect x="460" y="670" width="200" height="40" style="fill:white;stroke:black;stroke-width:1" /><text x="470" y="680" font-size="10" style="fill:blue">imagen</text><path d="M440 690 C460 690 440 690 460 690" style="fill:transparent;stroke:black" /><text x="470" y="690" font-size="8" style="fill:black">url: multimedia/BRNO</text><rect x="526" y="670" width="137" height="40" style="fill:green;stroke:black;stroke-width:1" /><text x="536" y="680" font-size="8" style="fill:white">Circuito General</text><rect x="460" y="720" width="200" height="40" style="fill:white;stroke:black;stroke-width:1" /><text x="470" y="730" font-size="10" style="fill:blue">imagen</text><path d="M440 690 C460 690 440 740 460 740" style="fill:transparent;stroke:black" /><text x="470" y="740" font-size="8" style="fill:black">url: multimedia/esquemaBRNO</text><rect x="526" y="720" width="137" height="40" style="fill:green;stroke:black;stroke-width:1" /><text x="536" y="730" font-size="8" style="fill:white">Mapa del circuito</text><rect x="460" y="770" width="200" height="40" style="fill:white;stroke:black;stroke-width:1" /><text x="470" y="780" font-size="10" style="fill:blue">imagen</text><path d="M440 690 C460 690 440 790 460 790" style="fill:transparent;stroke:black" /><text x="470" y="790" font-size="8" style="fill:black">url: multimedia/gradasBRNO</text><rect x="526" y="770" width="137" height="40" style="fill:green;stroke:black;stroke-width:1" /><text x="536" y="780" font-size="8" style="fill:white">Gradas</text><rect x="240" y="870" width="200" height="40" style="fill:white;stroke:black;stroke-width:1" /><text x="250" y="880" font-size="10" style="fill:blue">videos</text><path d="M220 40 C240 40 220 890 240 890" style="fill:transparent;stroke:black" /><rect x="460" y="870" width="200" height="40" style="fill:white;stroke:black;stroke-width:1" /><text x="470" y="880" font-size="10" style="fill:blue">video</text><path d="M440 890 C460 890 440 890 460 890" style="fill:transparent;stroke:black" /><text x="470" y="890" font-size="8" style="fill:black">url: multimedia/BRNO2015</text><rect x="526" y="870" width="137" height="40" style="fill:green;stroke:black;stroke-width:1" /><text x="536" y="880" font-size="8" style="fill:white">Circuito en 2015</text><rect x="240" y="970" width="200" height="40" style="fill:white;stroke:black;stroke-width:1" /><text x="250" y="980" font-size="10" style="fill:blue">origen</text><path d="M220 40 C240 40 220 990 240 990" style="fill:transparent;stroke:black" /><rect x="460" y="970" width="200" height="40" style="fill:white;stroke:black;stroke-width:1" /><text x="470" y="980" font-size="10" style="fill:blue">coordenada</text><path d="M440 990 C460 990 440 990 460 990" style="fill:transparent;stroke:black" /><text x="470" y="990" font-size="8" style="fill:black">latitud: 49°12'10''N</text><text x="470" y="1000" font-size="8" style="fill:black">longitud: 16°26'43''E</text><text x="470" y="1010" font-size="8" style="fill:black">altitud: 440m</text><rect x="240" y="1070" width="200" height="40" style="fill:white;stroke:black;stroke-width:1" /><text x="250" y="1080" font-size="10" style="fill:blue">tramos</text><path d="M220 40 C240 40 220 1090 240 1090" style="fill:transparent;stroke:black" /><rect x="460" y="1070" width="200" height="40" style="fill:white;stroke:black;stroke-width:1" /><text x="470" y="1080" font-size="10" style="fill:blue">tramo</text><path d="M440 1090 C460 1090 440 1090 460 1090" style="fill:transparent;stroke:black" /><text x="470" y="1090" font-size="8" style="fill:black">longitud: 619,39</text><text x="470" y="1100" font-size="8" style="fill:black">numeroSector: 1</text><rect x="680" y="1070" width="200" height="40" style="fill:white;stroke:black;stroke-width:1" /><text x="690" y="1080" font-size="10" style="fill:blue">coordenada</text><path d="M660 1090 C680 1090 660 1090 680 1090" style="fill:transparent;stroke:black" /><text x="690" y="1090" font-size="8" style="fill:black">latitud: 49°12'12''N</text><text x="690" y="1100" font-size="8" style="fill:black">longitud: 16°26'45''E</text><text x="690" y="1110" font-size="8" style="fill:black">altitud: 440</text><rect x="460" y="1170" width="200" height="40" style="fill:white;stroke:black;stroke-width:1" /><text x="470" y="1180" font-size="10" style="fill:blue">tramo</text><path d="M440 1090 C460 1090 440 1190 460 1190" style="fill:transparent;stroke:black" /><text x="470" y="1190" font-size="8" style="fill:black">longitud: 245,39</text><text x="470" y="1200" font-size="8" style="fill:black">numeroSector: 1</text><rect x="680" y="1170" width="200" height="40" style="fill:white;stroke:black;stroke-width:1" /><text x="690" y="1180" font-size="10" style="fill:blue">coordenada</text><path d="M660 1190 C680 1190 660 1190 680 1190" style="fill:transparent;stroke:black" /><text x="690" y="1190" font-size="8" style="fill:black">latitud: 49°12'22''N</text><text x="690" y="1200" font-size="8" style="fill:black">longitud: 16°26'26''E</text><text x="690" y="1210" font-size="8" style="fill:black">altitud: 438</text><rect x="460" y="1270" width="200" height="40" style="fill:white;stroke:black;stroke-width:1" /><text x="470" y="1280" font-size="10" style="fill:blue">tramo</text><path d="M440 1090 C460 1090 440 1290 460 1290" style="fill:transparent;stroke:black" /><text x="470" y="1290" font-size="8" style="fill:black">longitud: 164,79</text><text x="470" y="1300" font-size="8" style="fill:black">numeroSector: 1</text><rect x="680" y="1270" width="200" height="40" style="fill:white;stroke:black;stroke-width:1" /><text x="690" y="1280" font-size="10" style="fill:blue">coordenada</text><path d="M660 1290 C680 1290 660 1290 680 1290" style="fill:transparent;stroke:black" /><text x="690" y="1290" font-size="8" style="fill:black">latitud: 49°12'20''N</text><text x="690" y="1300" font-size="8" style="fill:black">longitud: 16°26'34''E</text><text x="690" y="1310" font-size="8" style="fill:black">altitud: 438</text><rect x="460" y="1370" width="200" height="40" style="fill:white;stroke:black;stroke-width:1" /><text x="470" y="1380" font-size="10" style="fill:blue">tramo</text><path d="M440 1090 C460 1090 440 1390 460 1390" style="fill:transparent;stroke:black" /><text x="470" y="1390" font-size="8" style="fill:black">longitud: 503,43</text><text x="470" y="1400" font-size="8" style="fill:black">numeroSector: 2</text><rect x="680" y="1370" width="200" height="40" style="fill:white;stroke:black;stroke-width:1" /><text x="690" y="1380" font-size="10" style="fill:blue">coordenada</text><path d="M660 1390 C680 1390 660 1390 680 1390" style="fill:transparent;stroke:black" /><text x="690" y="1390" font-size="8" style="fill:black">latitud: 49°12'21''N</text><text x="690" y="1400" font-size="8" style="fill:black">longitud: 16°26'59''E</text><text x="690" y="1410" font-size="8" style="fill:black">altitud: 446</text><rect x="460" y="1470" width="200" height="40" style="fill:white;stroke:black;stroke-width:1" /><text x="470" y="1480" font-size="10" style="fill:blue">tramo</text><path d="M440 1090 C460 1090 440 1490 460 1490" style="fill:transparent;stroke:black" /><text x="470" y="1490" font-size="8" style="fill:black">longitud: 116,09</text><text x="470" y="1500" font-size="8" style="fill:black">numeroSector: 2</text><rect x="680" y="1470" width="200" height="40" style="fill:white;stroke:black;stroke-width:1" /><text x="690" y="1480" font-size="10" style="fill:blue">coordenada</text><path d="M660 1490 C680 1490 660 1490 680 1490" style="fill:transparent;stroke:black" /><text x="690" y="1490" font-size="8" style="fill:black">latitud: 49°12'24''N</text><text x="690" y="1500" font-size="8" style="fill:black">longitud: 16°27'02''E</text><text x="690" y="1510" font-size="8" style="fill:black">altitud: 449</text><rect x="460" y="1570" width="200" height="40" style="fill:white;stroke:black;stroke-width:1" /><text x="470" y="1580" font-size="10" style="fill:blue">tramo</text><path d="M440 1090 C460 1090 440 1590 460 1590" style="fill:transparent;stroke:black" /><text x="470" y="1590" font-size="8" style="fill:black">longitud: 121,6</text><text x="470" y="1600" font-size="8" style="fill:black">numeroSector: 2</text><rect x="680" y="1570" width="200" height="40" style="fill:white;stroke:black;stroke-width:1" /><text x="690" y="1580" font-size="10" style="fill:blue">coordenada</text><path d="M660 1590 C680 1590 660 1590 680 1590" style="fill:transparent;stroke:black" /><text x="690" y="1590" font-size="8" style="fill:black">latitud: 49°12'28''N</text><text x="690" y="1600" font-size="8" style="fill:black">longitud: 16°27'00''E</text><text x="690" y="1610" font-size="8" style="fill:black">altitud: 450</text><rect x="460" y="1670" width="200" height="40" style="fill:white;stroke:black;stroke-width:1" /><text x="470" y="1680" font-size="10" style="fill:blue">tramo</text><path d="M440 1090 C460 1090 440 1690 460 1690" style="fill:transparent;stroke:black" /><text x="470" y="1690" font-size="8" style="fill:black">longitud: 102,54</text><text x="470" y="1700" font-size="8" style="fill:black">numeroSector: 2</text><rect x="680" y="1670" width="200" height="40" style="fill:white;stroke:black;stroke-width:1" /><text x="690" y="1680" font-size="10" style="fill:blue">coordenada</text><path d="M660 1690 C680 1690 660 1690 680 1690" style="fill:transparent;stroke:black" /><text x="690" y="1690" font-size="8" style="fill:black">latitud: 49°12'30''N</text><text x="690" y="1700" font-size="8" style="fill:black">longitud: 16°27'03''E</text><text x="690" y="1710" font-size="8" style="fill:black">altitud: 449</text><rect x="460" y="1770" width="200" height="40" style="fill:white;stroke:black;stroke-width:1" /><text x="470" y="1780" font-size="10" style="fill:blue">tramo</text><path d="M440 1090 C460 1090 440 1790 460 1790" style="fill:transparent;stroke:black" /><text x="470" y="1790" font-size="8" style="fill:black">longitud: 459,64</text><text x="470" y="1800" font-size="8" style="fill:black">numeroSector: 2</text><rect x="680" y="1770" width="200" height="40" style="fill:white;stroke:black;stroke-width:1" /><text x="690" y="1780" font-size="10" style="fill:blue">coordenada</text><path d="M660 1790 C680 1790 660 1790 680 1790" style="fill:transparent;stroke:black" /><text x="690" y="1790" font-size="8" style="fill:black">latitud: 49°12'33''N</text><text x="690" y="1800" font-size="8" style="fill:black">longitud: 16°27'24''E</text><text x="690" y="1810" font-size="8" style="fill:black">altitud: 430</text><rect x="460" y="1870" width="200" height="40" style="fill:white;stroke:black;stroke-width:1" /><text x="470" y="1880" font-size="10" style="fill:blue">tramo</text><path d="M440 1090 C460 1090 440 1890 460 1890" style="fill:transparent;stroke:black" /><text x="470" y="1890" font-size="8" style="fill:black">longitud: 562,69</text><text x="470" y="1900" font-size="8" style="fill:black">numeroSector: 3</text><rect x="680" y="1870" width="200" height="40" style="fill:white;stroke:black;stroke-width:1" /><text x="690" y="1880" font-size="10" style="fill:blue">coordenada</text><path d="M660 1890 C680 1890 660 1890 680 1890" style="fill:transparent;stroke:black" /><text x="690" y="1890" font-size="8" style="fill:black">latitud: 49°12'22''N</text><text x="690" y="1900" font-size="8" style="fill:black">longitud: 16°27'22''E</text><text x="690" y="1910" font-size="8" style="fill:black">altitud: 423</text><rect x="460" y="1970" width="200" height="40" style="fill:white;stroke:black;stroke-width:1" /><text x="470" y="1980" font-size="10" style="fill:blue">tramo</text><path d="M440 1090 C460 1090 440 1990 460 1990" style="fill:transparent;stroke:black" /><text x="470" y="1990" font-size="8" style="fill:black">longitud: 412,11</text><text x="470" y="2000" font-size="8" style="fill:black">numeroSector: 3</text><rect x="680" y="1970" width="200" height="40" style="fill:white;stroke:black;stroke-width:1" /><text x="690" y="1980" font-size="10" style="fill:blue">coordenada</text><path d="M660 1990 C680 1990 660 1990 680 1990" style="fill:transparent;stroke:black" /><text x="690" y="1990" font-size="8" style="fill:black">latitud: 49°12'22''N</text><text x="690" y="2000" font-size="8" style="fill:black">longitud: 16°27'37''E</text><text x="690" y="2010" font-size="8" style="fill:black">altitud: 406</text><rect x="460" y="2070" width="200" height="40" style="fill:white;stroke:black;stroke-width:1" /><text x="470" y="2080" font-size="10" style="fill:blue">tramo</text><path d="M440 1090 C460 1090 440 2090 460 2090" style="fill:transparent;stroke:black" /><text x="470" y="2090" font-size="8" style="fill:black">longitud: 496,13</text><text x="470" y="2100" font-size="8" style="fill:black">numeroSector: 3</text><rect x="680" y="2070" width="200" height="40" style="fill:white;stroke:black;stroke-width:1" /><text x="690" y="2080" font-size="10" style="fill:blue">coordenada</text><path d="M660 2090 C680 2090 660 2090 680 2090" style="fill:transparent;stroke:black" /><text x="690" y="2090" font-size="8" style="fill:black">latitud: 49°12'09''N</text><text x="690" y="2100" font-size="8" style="fill:black">longitud: 16°27'51''E</text><text x="690" y="2110" font-size="8" style="fill:black">altitud: 387</text><rect x="460" y="2170" width="200" height="40" style="fill:white;stroke:black;stroke-width:1" /><text x="470" y="2180" font-size="10" style="fill:blue">tramo</text><path d="M440 1090 C460 1090 440 2190 460 2190" style="fill:transparent;stroke:black" /><text x="470" y="2190" font-size="8" style="fill:black">longitud: 170,76</text><text x="470" y="2200" font-size="8" style="fill:black">numeroSector: 3</text><rect x="680" y="2170" width="200" height="40" style="fill:white;stroke:black;stroke-width:1" /><text x="690" y="2180" font-size="10" style="fill:blue">coordenada</text><path d="M660 2190 C680 2190 660 2190 680 2190" style="fill:transparent;stroke:black" /><text x="690" y="2190" font-size="8" style="fill:black">latitud: 49°12'06''N</text><text x="690" y="2200" font-size="8" style="fill:black">longitud: 16°27'47''E</text><text x="690" y="2210" font-size="8" style="fill:black">altitud: 379</text><rect x="460" y="2270" width="200" height="40" style="fill:white;stroke:black;stroke-width:1" /><text x="470" y="2280" font-size="10" style="fill:blue">tramo</text><path d="M440 1090 C460 1090 440 2290 460 2290" style="fill:transparent;stroke:black" /><text x="470" y="2290" font-size="8" style="fill:black">longitud: 259,98</text><text x="470" y="2300" font-size="8" style="fill:black">numeroSector: 3</text><rect x="680" y="2270" width="200" height="40" style="fill:white;stroke:black;stroke-width:1" /><text x="690" y="2280" font-size="10" style="fill:blue">coordenada</text><path d="M660 2290 C680 2290 660 2290 680 2290" style="fill:transparent;stroke:black" /><text x="690" y="2290" font-size="8" style="fill:black">latitud: 49°12'10''N</text><text x="690" y="2300" font-size="8" style="fill:black">longitud: 16°27'36''E</text><text x="690" y="2310" font-size="8" style="fill:black">altitud: 384</text><rect x="460" y="2370" width="200" height="40" style="fill:white;stroke:black;stroke-width:1" /><text x="470" y="2380" font-size="10" style="fill:blue">tramo</text><path d="M440 1090 C460 1090 440 2390 460 2390" style="fill:transparent;stroke:black" /><text x="470" y="2390" font-size="8" style="fill:black">longitud: 264,36</text><text x="470" y="2400" font-size="8" style="fill:black">numeroSector: 3</text><rect x="680" y="2370" width="200" height="40" style="fill:white;stroke:black;stroke-width:1" /><text x="690" y="2380" font-size="10" style="fill:blue">coordenada</text><path d="M660 2390 C680 2390 660 2390 680 2390" style="fill:transparent;stroke:black" /><text x="690" y="2390" font-size="8" style="fill:black">latitud: 49°12'07''N</text><text x="690" y="2400" font-size="8" style="fill:black">longitud: 16°27'26''E</text><text x="690" y="2410" font-size="8" style="fill:black">altitud: 404</text><rect x="460" y="2470" width="200" height="40" style="fill:white;stroke:black;stroke-width:1" /><text x="470" y="2480" font-size="10" style="fill:blue">tramo</text><path d="M440 1090 C460 1090 440 2490 460 2490" style="fill:transparent;stroke:black" /><text x="470" y="2490" font-size="8" style="fill:black">longitud: 485,48</text><text x="470" y="2500" font-size="8" style="fill:black">numeroSector: 1</text><rect x="680" y="2470" width="200" height="40" style="fill:white;stroke:black;stroke-width:1" /><text x="690" y="2480" font-size="10" style="fill:blue">coordenada</text><path d="M660 2490 C680 2490 660 2490 680 2490" style="fill:transparent;stroke:black" /><text x="690" y="2490" font-size="8" style="fill:black">latitud: 49°12'12''N</text><text x="690" y="2500" font-size="8" style="fill:black">longitud: 16°27'04''E</text><text x="690" y="2510" font-size="8" style="fill:black">altitud: 437</text><rect x="460" y="2570" width="200" height="40" style="fill:white;stroke:black;stroke-width:1" /><text x="470" y="2580" font-size="10" style="fill:blue">tramo</text><path d="M440 1090 C460 1090 440 2590 460 2590" style="fill:transparent;stroke:black" /><text x="470" y="2590" font-size="8" style="fill:black">longitud: 375,78</text><text x="470" y="2600" font-size="8" style="fill:black">numeroSector: 1</text><rect x="680" y="2570" width="200" height="40" style="fill:white;stroke:black;stroke-width:1" /><text x="690" y="2580" font-size="10" style="fill:blue">coordenada</text><path d="M660 2590 C680 2590 660 2590 680 2590" style="fill:transparent;stroke:black" /><text x="690" y="2590" font-size="8" style="fill:black">latitud: 49°12'08''N</text><text x="690" y="2600" font-size="8" style="fill:black">longitud: 16°26'50''E</text><text x="690" y="2610" font-size="8" style="fill:black">altitud: 441</text><rect x="240" y="2720" width="200" height="40" style="fill:white;stroke:black;stroke-width:1" /><text x="250" y="2730" font-size="10" style="fill:blue">vencedor</text><path d="M220 40 C240 40 220 2740 240 2740" style="fill:transparent;stroke:black" /><rect x="460" y="2720" width="200" height="40" style="fill:white;stroke:black;stroke-width:1" /><text x="470" y="2730" font-size="10" style="fill:blue">persona</text><path d="M440 2740 C460 2740 440 2740 460 2740" style="fill:transparent;stroke:black" /><text x="470" y="2740" font-size="8" style="fill:black">nombre: Marc Marquez</text><rect x="240" y="2820" width="200" height="40" style="fill:white;stroke:black;stroke-width:1" /><text x="250" y="2830" font-size="10" style="fill:blue">clasificados</text><path d="M220 40 C240 40 220 2840 240 2840" style="fill:transparent;stroke:black" /><rect x="460" y="2820" width="200" height="40" style="fill:white;stroke:black;stroke-width:1" /><text x="470" y="2830" font-size="10" style="fill:blue">persona</text><path d="M440 2840 C460 2840 440 2840 460 2840" style="fill:transparent;stroke:black" /><text x="470" y="2840" font-size="8" style="fill:black">nombre: Marc Marquez</text><rect x="460" y="2870" width="200" height="40" style="fill:white;stroke:black;stroke-width:1" /><text x="470" y="2880" font-size="10" style="fill:blue">persona</text><path d="M440 2840 C460 2840 440 2890 460 2890" style="fill:transparent;stroke:black" /><text x="470" y="2890" font-size="8" style="fill:black">nombre: Pedro Acosta</text><rect x="460" y="2920" width="200" height="40" style="fill:white;stroke:black;stroke-width:1" /><text x="470" y="2930" font-size="10" style="fill:blue">persona</text><path d="M440 2840 C460 2840 440 2940 460 2940" style="fill:transparent;stroke:black" /><text x="470" y="2940" font-size="8" style="fill:black">nombre: Enea Bastianini</text></svg>